<svg xmlns="http://www.w3.org/2000/svg" width="128" height="128" viewBox="0 0 128 128" fill="none" role="img" aria-label="CrispChat">
  <defs>
    <linearGradient id="g" x1="18" y1="14" x2="110" y2="120" gradientUnits="userSpaceOnUse">
      <stop stop-color="#7C3AED"/>
      <stop offset="0.55" stop-color="#22D3EE"/>
      <stop offset="1" stop-color="#60A5FA"/>
    </linearGradient>
  </defs>
  <path d="M34 22c-9.941 0-18 8.059-18 18v30c0 9.941 8.059 18 18 18h15.6l10.6 10.6c1.89 1.89 5.14.55 5.14-2.12V88H94c9.941 0 18-8.059 18-18V40c0-9.941-8.059-18-18-18H34Z" fill="url(#g)"/>
  <path d="M55.5 67.6c0 6.8 5 11.8 12.6 11.8 4.6 0 8.6-1.9 10.9-5.1.5-.7.2-1.7-.5-2.1l-5.2-3c-.7-.4-1.6-.2-2.1.4-1 1.3-2.5 2.1-4.3 2.1-3.3 0-5.4-1.9-5.4-4.6 0-2.7 2.1-4.7 5.4-4.7 1.8 0 3.3.8 4.3 2.1.5.6 1.4.8 2.1.4l5.2-3c.7-.4 1-1.4.5-2.1-2.3-3.2-6.3-5.1-10.9-5.1-7.6 0-12.6 5-12.6 12Z" fill="rgba(6,10,18,0.88)"/>
</svg>

