<svg xmlns="http://www.w3.org/2000/svg" width="256" height="256" viewBox="0 0 256 256" fill="none" role="img" aria-label="CrispChat logo">
  <defs>
    <linearGradient id="g" x1="36" y1="28" x2="220" y2="232" gradientUnits="userSpaceOnUse">
      <stop stop-color="#7C3AED"/>
      <stop offset="0.55" stop-color="#22D3EE"/>
      <stop offset="1" stop-color="#60A5FA"/>
    </linearGradient>
    <filter id="s" x="-20%" y="-20%" width="140%" height="140%" color-interpolation-filters="sRGB">
      <feDropShadow dx="0" dy="14" stdDeviation="14" flood-color="#000" flood-opacity="0.38"/>
    </filter>
  </defs>
  <g filter="url(#s)">
    <path d="M72 52C55.431 52 42 65.431 42 82v64c0 16.569 13.431 30 30 30h35.5l20.2 20.2c3.15 3.15 8.55.92 8.55-3.54V176H184c16.569 0 30-13.431 30-30V82c0-16.569-13.431-30-30-30H72Z" fill="url(#g)"/>
    <path d="M109.1 130.2c0 9.7 7.1 16.9 18.1 16.9 6.6 0 12.4-2.7 15.7-7.4a1.8 1.8 0 0 0-.6-2.6l-7.5-4.4a1.9 1.9 0 0 0-2.5.5c-1.4 1.9-3.6 3-6.2 3-4.8 0-7.8-2.8-7.8-6.6 0-3.9 3-6.7 7.8-6.7 2.6 0 4.8 1.1 6.2 3a1.9 1.9 0 0 0 2.5.5l7.5-4.4a1.8 1.8 0 0 0 .6-2.6c-3.3-4.7-9.1-7.4-15.7-7.4-11 0-18.1 7.2-18.1 17.2Z" fill="rgba(6,10,18,0.88)"/>
    <path d="M82 92h92" stroke="rgba(6,10,18,0.20)" stroke-width="10" stroke-linecap="round"/>
  </g>
</svg>

